<svg width="91" height="36" viewBox="0 0 91 36" fill="none" xmlns="http://www.w3.org/2000/svg">
<path d="M1.56006 0.339999V14.62H11.0201V13.02H3.46006V0.339999H1.56006Z" fill="black"/>
<path d="M13.7733 7.48C13.7733 6.76 13.8667 6.05333 14.0533 5.36C14.24 4.65333 14.5333 4.02 14.9333 3.46C15.3333 2.9 15.8467 2.45333 16.4733 2.12C17.1 1.77333 17.8467 1.6 18.7133 1.6C19.58 1.6 20.3267 1.77333 20.9533 2.12C21.58 2.45333 22.0933 2.9 22.4933 3.46C22.8933 4.02 23.1867 4.65333 23.3733 5.36C23.56 6.05333 23.6533 6.76 23.6533 7.48C23.6533 8.2 23.56 8.91333 23.3733 9.62C23.1867 10.3133 22.8933 10.94 22.4933 11.5C22.0933 12.06 21.58 12.5133 20.9533 12.86C20.3267 13.1933 19.58 13.36 18.7133 13.36C17.8467 13.36 17.1 13.1933 16.4733 12.86C15.8467 12.5133 15.3333 12.06 14.9333 11.5C14.5333 10.94 14.24 10.3133 14.0533 9.62C13.8667 8.91333 13.7733 8.2 13.7733 7.48ZM11.8733 7.48C11.8733 8.45333 12.0133 9.39333 12.2933 10.3C12.5867 11.1933 13.02 11.9867 13.5933 12.68C14.1667 13.3733 14.88 13.9267 15.7333 14.34C16.5867 14.74 17.58 14.94 18.7133 14.94C19.8467 14.94 20.84 14.74 21.6933 14.34C22.5467 13.9267 23.26 13.3733 23.8333 12.68C24.4067 11.9867 24.8333 11.1933 25.1133 10.3C25.4067 9.39333 25.5533 8.45333 25.5533 7.48C25.5533 6.50667 25.4067 5.57333 25.1133 4.68C24.8333 3.77333 24.4067 2.97333 23.8333 2.28C23.26 1.58667 22.5467 1.03333 21.6933 0.619999C20.84 0.206666 19.8467 0 18.7133 0C17.58 0 16.5867 0.206666 15.7333 0.619999C14.88 1.03333 14.1667 1.58667 13.5933 2.28C13.02 2.97333 12.5867 3.77333 12.2933 4.68C12.0133 5.57333 11.8733 6.50667 11.8733 7.48Z" fill="black"/>
<path d="M38.5487 12.84L39.0487 14.62H40.2487V7.1H33.9887V8.7H38.5487C38.5753 9.35333 38.4887 9.96667 38.2887 10.54C38.0886 11.1 37.7887 11.5933 37.3887 12.02C37.002 12.4333 36.522 12.76 35.9487 13C35.3753 13.24 34.7153 13.36 33.9687 13.36C33.1687 13.36 32.462 13.2067 31.8487 12.9C31.2487 12.58 30.742 12.16 30.3287 11.64C29.9153 11.1067 29.602 10.5 29.3887 9.82C29.1753 9.12667 29.0687 8.40667 29.0687 7.66C29.0687 6.9 29.162 6.16 29.3487 5.44C29.5353 4.70667 29.822 4.06 30.2087 3.5C30.6087 2.92667 31.1153 2.46667 31.7287 2.12C32.3553 1.77333 33.102 1.6 33.9687 1.6C34.502 1.6 35.002 1.66667 35.4687 1.8C35.9487 1.92 36.3753 2.10667 36.7486 2.36C37.122 2.61333 37.4353 2.94 37.6887 3.34C37.942 3.72667 38.1153 4.19333 38.2087 4.74H40.1087C39.9753 3.9 39.722 3.18667 39.3487 2.6C38.9887 2 38.5353 1.50667 37.9887 1.12C37.4553 0.733333 36.842 0.453332 36.1487 0.28C35.4687 0.0933331 34.742 0 33.9687 0C32.8353 0 31.842 0.213333 30.9887 0.639998C30.1487 1.05333 29.442 1.61333 28.8687 2.32C28.3087 3.02667 27.882 3.85333 27.5887 4.8C27.3087 5.73333 27.1687 6.72 27.1687 7.76C27.1687 8.69333 27.322 9.59333 27.6287 10.46C27.9353 11.3267 28.382 12.0933 28.9687 12.76C29.5553 13.4267 30.2687 13.96 31.1087 14.36C31.9487 14.7467 32.902 14.94 33.9687 14.94C34.8087 14.94 35.642 14.78 36.4687 14.46C37.2953 14.1267 37.9887 13.5867 38.5487 12.84Z" fill="black"/>
<path d="M44.1444 7.48C44.1444 6.76 44.2378 6.05333 44.4244 5.36C44.6111 4.65333 44.9044 4.02 45.3044 3.46C45.7044 2.9 46.2178 2.45333 46.8444 2.12C47.4711 1.77333 48.2178 1.6 49.0844 1.6C49.9511 1.6 50.6978 1.77333 51.3244 2.12C51.9511 2.45333 52.4644 2.9 52.8644 3.46C53.2644 4.02 53.5578 4.65333 53.7444 5.36C53.9311 6.05333 54.0244 6.76 54.0244 7.48C54.0244 8.2 53.9311 8.91333 53.7444 9.62C53.5578 10.3133 53.2644 10.94 52.8644 11.5C52.4644 12.06 51.9511 12.5133 51.3244 12.86C50.6978 13.1933 49.9511 13.36 49.0844 13.36C48.2178 13.36 47.4711 13.1933 46.8444 12.86C46.2178 12.5133 45.7044 12.06 45.3044 11.5C44.9044 10.94 44.6111 10.3133 44.4244 9.62C44.2378 8.91333 44.1444 8.2 44.1444 7.48ZM42.2444 7.48C42.2444 8.45333 42.3844 9.39333 42.6644 10.3C42.9578 11.1933 43.3911 11.9867 43.9644 12.68C44.5378 13.3733 45.2511 13.9267 46.1044 14.34C46.9578 14.74 47.9511 14.94 49.0844 14.94C50.2178 14.94 51.2111 14.74 52.0644 14.34C52.9178 13.9267 53.6311 13.3733 54.2044 12.68C54.7778 11.9867 55.2044 11.1933 55.4844 10.3C55.7778 9.39333 55.9244 8.45333 55.9244 7.48C55.9244 6.50667 55.7778 5.57333 55.4844 4.68C55.2044 3.77333 54.7778 2.97333 54.2044 2.28C53.6311 1.58667 52.9178 1.03333 52.0644 0.619999C51.2111 0.206666 50.2178 0 49.0844 0C47.9511 0 46.9578 0.206666 46.1044 0.619999C45.2511 1.03333 44.5378 1.58667 43.9644 2.28C43.3911 2.97333 42.9578 3.77333 42.6644 4.68C42.3844 5.57333 42.2444 6.50667 42.2444 7.48Z" fill="black"/>
<path d="M0.75 24.5001H3.8C4.48667 24.5001 5.03 24.6735 5.43 25.0201C5.83667 25.3601 6.04 25.8535 6.04 26.5001C6.04 27.1801 5.83667 27.6968 5.43 28.0501C5.02333 28.4035 4.47333 28.5801 3.78 28.5801H1.43V31.6201H0.75V24.5001ZM1.43 25.0801V28.0101H3.59C4.11667 28.0101 4.54333 27.8935 4.87 27.6601C5.19667 27.4201 5.36 27.0501 5.36 26.5501C5.36 26.0568 5.21 25.6901 4.91 25.4501C4.61 25.2035 4.19333 25.0801 3.66 25.0801H1.43ZM7.53883 24.5001V31.6201H6.91883V24.5001H7.53883ZM13.2545 31.1101V31.5901C13.1012 31.6435 12.9345 31.6701 12.7545 31.6701C12.4812 31.6701 12.3012 31.5868 12.2145 31.4201C12.1279 31.2535 12.0845 31.0235 12.0845 30.7301C11.6512 31.4168 11.0045 31.7601 10.1445 31.7601C9.61786 31.7601 9.20453 31.6335 8.90453 31.3801C8.6112 31.1268 8.46453 30.7735 8.46453 30.3201C8.46453 29.3935 9.1012 28.8635 10.3745 28.7301C10.4412 28.7235 10.5345 28.7168 10.6545 28.7101C10.7745 28.6968 10.8612 28.6868 10.9145 28.6801C10.9745 28.6735 11.0479 28.6668 11.1345 28.6601C11.2279 28.6468 11.2945 28.6368 11.3345 28.6301C11.3812 28.6235 11.4345 28.6135 11.4945 28.6001C11.5612 28.5868 11.6112 28.5735 11.6445 28.5601C11.6845 28.5468 11.7245 28.5335 11.7645 28.5201C11.8045 28.5001 11.8412 28.4801 11.8745 28.4601C11.9945 28.3801 12.0545 28.2168 12.0545 27.9701C12.0545 27.5635 11.9412 27.2768 11.7145 27.1101C11.4879 26.9435 11.1545 26.8601 10.7145 26.8601C10.2812 26.8601 9.94786 26.9601 9.71453 27.1601C9.48786 27.3535 9.35453 27.6568 9.31453 28.0701H8.71453C8.7412 27.5168 8.93453 27.0901 9.29453 26.7901C9.65453 26.4901 10.1512 26.3401 10.7845 26.3401C11.3712 26.3401 11.8312 26.4668 12.1645 26.7201C12.5045 26.9735 12.6745 27.3401 12.6745 27.8201V30.6201C12.6745 30.7535 12.6779 30.8501 12.6845 30.9101C12.6912 30.9635 12.7179 31.0168 12.7645 31.0701C12.8179 31.1168 12.9012 31.1401 13.0145 31.1401C13.1012 31.1401 13.1812 31.1301 13.2545 31.1101ZM12.0545 28.8201C11.9945 28.8868 11.8945 28.9435 11.7545 28.9901C11.6212 29.0301 11.4979 29.0601 11.3845 29.0801C11.2712 29.1001 11.0779 29.1268 10.8045 29.1601C10.7379 29.1668 10.6879 29.1735 10.6545 29.1801C10.4412 29.2068 10.2645 29.2368 10.1245 29.2701C9.9912 29.3035 9.83453 29.3601 9.65453 29.4401C9.4812 29.5135 9.34786 29.6201 9.25453 29.7601C9.16786 29.8935 9.12453 30.0601 9.12453 30.2601C9.12453 30.5601 9.2312 30.8001 9.44453 30.9801C9.65786 31.1535 9.94453 31.2401 10.3045 31.2401C10.7912 31.2401 11.2045 31.0968 11.5445 30.8101C11.8845 30.5168 12.0545 30.1335 12.0545 29.6601V28.8201ZM18.2401 29.7801C18.1534 30.3801 17.9201 30.8635 17.5401 31.2301C17.1667 31.5901 16.6767 31.7701 16.0701 31.7701C15.3501 31.7701 14.7734 31.5268 14.3401 31.0401C13.9067 30.5535 13.6901 29.9068 13.6901 29.1001C13.6901 28.2601 13.9067 27.5901 14.3401 27.0901C14.7801 26.5835 15.3634 26.3301 16.0901 26.3301C16.6834 26.3301 17.1634 26.4868 17.5301 26.8001C17.9034 27.1135 18.1267 27.5468 18.2001 28.1001H17.5601C17.3934 27.2668 16.9067 26.8501 16.1001 26.8501C15.5601 26.8501 15.1301 27.0501 14.8101 27.4501C14.4967 27.8435 14.3401 28.3768 14.3401 29.0501C14.3401 29.7235 14.4934 30.2601 14.8001 30.6601C15.1067 31.0535 15.5201 31.2501 16.0401 31.2501C16.4734 31.2501 16.8267 31.1235 17.1001 30.8701C17.3734 30.6101 17.5434 30.2468 17.6101 29.7801H18.2401ZM23.3956 29.9301C23.2823 30.5101 23.0356 30.9668 22.6556 31.3001C22.2756 31.6268 21.789 31.7901 21.1956 31.7901C20.4823 31.7901 19.909 31.5468 19.4756 31.0601C19.049 30.5735 18.8356 29.9235 18.8356 29.1101C18.8356 28.2968 19.0523 27.6335 19.4856 27.1201C19.9256 26.6001 20.4923 26.3401 21.1856 26.3401C21.9123 26.3401 22.469 26.5968 22.8556 27.1101C23.249 27.6235 23.4456 28.2601 23.4456 29.0201V29.2001H19.4756C19.4756 29.7935 19.619 30.2901 19.9056 30.6901C20.199 31.0835 20.6356 31.2801 21.2156 31.2801C22.0623 31.2801 22.5856 30.8301 22.7856 29.9301H23.3956ZM22.8156 28.6901C22.7823 28.1168 22.619 27.6701 22.3256 27.3501C22.0323 27.0235 21.6456 26.8601 21.1656 26.8601C20.6456 26.8601 20.249 27.0301 19.9756 27.3701C19.709 27.7101 19.5423 28.1501 19.4756 28.6901H22.8156ZM29.2044 24.4901V25.0201C29.0644 25.0001 28.9244 24.9901 28.7844 24.9901C28.6377 24.9901 28.5144 25.0068 28.4144 25.0401C28.321 25.0734 28.2477 25.1135 28.1944 25.1601C28.1477 25.2001 28.111 25.2735 28.0844 25.3801C28.0644 25.4801 28.051 25.5635 28.0444 25.6301C28.0444 25.6968 28.0444 25.8101 28.0444 25.9701V26.4801H29.0744V26.9901H28.0444V31.6201H27.4144V26.9901H26.5344V26.4801H27.4144V25.8901C27.4144 25.4035 27.511 25.0435 27.7044 24.8101C27.9044 24.5701 28.2444 24.4501 28.7244 24.4501C28.851 24.4501 29.011 24.4635 29.2044 24.4901ZM31.8623 26.3301C32.6023 26.3301 33.1889 26.5768 33.6223 27.0701C34.0623 27.5635 34.2823 28.2301 34.2823 29.0701C34.2823 29.9035 34.0656 30.5635 33.6323 31.0501C33.1989 31.5301 32.6089 31.7701 31.8623 31.7701C31.1156 31.7701 30.5189 31.5268 30.0723 31.0401C29.6323 30.5468 29.4123 29.8835 29.4123 29.0501C29.4123 28.2235 29.6323 27.5635 30.0723 27.0701C30.5189 26.5768 31.1156 26.3301 31.8623 26.3301ZM33.1623 27.4601C32.8356 27.0601 32.3989 26.8601 31.8523 26.8601C31.3056 26.8601 30.8689 27.0601 30.5423 27.4601C30.2156 27.8535 30.0523 28.3835 30.0523 29.0501C30.0523 29.7301 30.2123 30.2668 30.5323 30.6601C30.8589 31.0535 31.3056 31.2501 31.8723 31.2501C32.4189 31.2501 32.8523 31.0535 33.1723 30.6601C33.4923 30.2668 33.6523 29.7335 33.6523 29.0601C33.6523 28.3868 33.4889 27.8535 33.1623 27.4601ZM37.8589 26.4001V27.0401C37.8322 27.0401 37.7989 27.0401 37.7589 27.0401C37.7256 27.0335 37.7022 27.0301 37.6889 27.0301C37.3022 27.0301 36.9556 27.1435 36.6489 27.3701C36.3489 27.5901 36.1489 27.8835 36.0489 28.2501C35.9689 28.5635 35.9289 28.9868 35.9289 29.5201V31.6201H35.3089V26.4801H35.8989V27.7101C36.1189 27.2368 36.3722 26.9035 36.6589 26.7101C36.9456 26.5101 37.3456 26.4068 37.8589 26.4001ZM45.1664 26.4801L43.1464 31.8101C42.8931 32.4901 42.6731 32.9535 42.4864 33.2001C42.2997 33.4468 42.0131 33.5701 41.6264 33.5701C41.4597 33.5701 41.2764 33.5535 41.0764 33.5201V32.9701C41.2631 33.0168 41.4131 33.0401 41.5264 33.0401C41.7797 33.0401 41.9697 32.9468 42.0964 32.7601C42.2297 32.5735 42.3797 32.2501 42.5464 31.7901C42.5531 31.7635 42.5597 31.7435 42.5664 31.7301C42.5731 31.7235 42.5797 31.7101 42.5864 31.6901C42.5931 31.6701 42.5997 31.6501 42.6064 31.6301C42.6131 31.6168 42.6197 31.6001 42.6264 31.5801L40.5564 26.4801H41.2464L42.6364 30.0201C42.6897 30.1601 42.7931 30.4635 42.9464 30.9301C43.1197 30.3635 43.2231 30.0368 43.2564 29.9501L44.5264 26.4801H45.1664ZM47.9853 26.3301C48.7253 26.3301 49.312 26.5768 49.7453 27.0701C50.1853 27.5635 50.4053 28.2301 50.4053 29.0701C50.4053 29.9035 50.1886 30.5635 49.7553 31.0501C49.322 31.5301 48.732 31.7701 47.9853 31.7701C47.2386 31.7701 46.642 31.5268 46.1953 31.0401C45.7553 30.5468 45.5353 29.8835 45.5353 29.0501C45.5353 28.2235 45.7553 27.5635 46.1953 27.0701C46.642 26.5768 47.2386 26.3301 47.9853 26.3301ZM49.2853 27.4601C48.9586 27.0601 48.522 26.8601 47.9753 26.8601C47.4286 26.8601 46.992 27.0601 46.6653 27.4601C46.3386 27.8535 46.1753 28.3835 46.1753 29.0501C46.1753 29.7301 46.3353 30.2668 46.6553 30.6601C46.982 31.0535 47.4286 31.2501 47.9953 31.2501C48.542 31.2501 48.9753 31.0535 49.2953 30.6601C49.6153 30.2668 49.7753 29.7335 49.7753 29.0601C49.7753 28.3868 49.612 27.8535 49.2853 27.4601ZM55.502 26.4801V31.6201H54.922V30.6701C54.542 31.4035 53.9386 31.7701 53.112 31.7701C52.5653 31.7701 52.132 31.6135 51.812 31.3001C51.4986 30.9801 51.342 30.5135 51.342 29.9001V26.4801H51.972V29.6301C51.972 30.1635 52.0686 30.5635 52.262 30.8301C52.462 31.0901 52.7986 31.2201 53.272 31.2201C53.772 31.2201 54.1653 31.0401 54.452 30.6801C54.7386 30.3135 54.882 29.8601 54.882 29.3201V26.4801H55.502ZM59.353 26.4001V27.0401C59.3264 27.0401 59.293 27.0401 59.253 27.0401C59.2197 27.0335 59.1964 27.0301 59.183 27.0301C58.7964 27.0301 58.4497 27.1435 58.143 27.3701C57.843 27.5901 57.643 27.8835 57.543 28.2501C57.463 28.5635 57.423 28.9868 57.423 29.5201V31.6201H56.803V26.4801H57.393V27.7101C57.613 27.2368 57.8664 26.9035 58.153 26.7101C58.4397 26.5101 58.8397 26.4068 59.353 26.4001ZM66.3505 27.9801H65.7405C65.6805 27.2335 65.2172 26.8601 64.3505 26.8601C63.9839 26.8601 63.6905 26.9368 63.4705 27.0901C63.2572 27.2435 63.1505 27.4501 63.1505 27.7101C63.1505 27.8368 63.1739 27.9468 63.2205 28.0401C63.2672 28.1335 63.3205 28.2101 63.3805 28.2701C63.4405 28.3235 63.5439 28.3768 63.6905 28.4301C63.8439 28.4835 63.9739 28.5268 64.0805 28.5601C64.1939 28.5868 64.3739 28.6268 64.6205 28.6801C64.8405 28.7335 65.0172 28.7768 65.1505 28.8101C65.2839 28.8435 65.4472 28.9035 65.6405 28.9901C65.8405 29.0701 65.9972 29.1601 66.1105 29.2601C66.2239 29.3535 66.3205 29.4835 66.4005 29.6501C66.4872 29.8101 66.5305 29.9935 66.5305 30.2001C66.5305 30.6735 66.3405 31.0568 65.9605 31.3501C65.5872 31.6368 65.0972 31.7801 64.4905 31.7801C63.8305 31.7801 63.3172 31.6201 62.9505 31.3001C62.5839 30.9801 62.3939 30.5268 62.3805 29.9401H62.9905C62.9905 30.3668 63.1239 30.6935 63.3905 30.9201C63.6572 31.1468 64.0305 31.2601 64.5105 31.2601C64.9305 31.2601 65.2672 31.1701 65.5205 30.9901C65.7805 30.8035 65.9105 30.5601 65.9105 30.2601C65.9105 30.1001 65.8672 29.9601 65.7805 29.8401C65.7005 29.7201 65.5905 29.6268 65.4505 29.5601C65.3105 29.4868 65.1705 29.4301 65.0305 29.3901C64.8972 29.3435 64.7539 29.3035 64.6005 29.2701C64.5539 29.2635 64.5205 29.2568 64.5005 29.2501C64.4539 29.2368 64.3472 29.2135 64.1805 29.1801C64.0139 29.1401 63.8972 29.1135 63.8305 29.1001C63.7639 29.0801 63.6572 29.0468 63.5105 29.0001C63.3639 28.9535 63.2572 28.9101 63.1905 28.8701C63.1239 28.8301 63.0372 28.7735 62.9305 28.7001C62.8305 28.6268 62.7539 28.5501 62.7005 28.4701C62.6539 28.3835 62.6105 28.2835 62.5705 28.1701C62.5372 28.0568 62.5205 27.9301 62.5205 27.7901C62.5205 27.3435 62.6872 26.9901 63.0205 26.7301C63.3605 26.4701 63.8239 26.3401 64.4105 26.3401C64.9972 26.3401 65.4672 26.4801 65.8205 26.7601C66.1739 27.0401 66.3505 27.4468 66.3505 27.9801ZM68.115 24.5001V31.6201H67.495V24.5001H68.115ZM71.5107 26.3301C72.2507 26.3301 72.8374 26.5768 73.2707 27.0701C73.7107 27.5635 73.9307 28.2301 73.9307 29.0701C73.9307 29.9035 73.714 30.5635 73.2807 31.0501C72.8474 31.5301 72.2574 31.7701 71.5107 31.7701C70.764 31.7701 70.1674 31.5268 69.7207 31.0401C69.2807 30.5468 69.0607 29.8835 69.0607 29.0501C69.0607 28.2235 69.2807 27.5635 69.7207 27.0701C70.1674 26.5768 70.764 26.3301 71.5107 26.3301ZM72.8107 27.4601C72.484 27.0601 72.0474 26.8601 71.5007 26.8601C70.954 26.8601 70.5174 27.0601 70.1907 27.4601C69.864 27.8535 69.7007 28.3835 69.7007 29.0501C69.7007 29.7301 69.8607 30.2668 70.1807 30.6601C70.5074 31.0535 70.954 31.2501 71.5207 31.2501C72.0674 31.2501 72.5007 31.0535 72.8207 30.6601C73.1407 30.2668 73.3007 29.7335 73.3007 29.0601C73.3007 28.3868 73.1374 27.8535 72.8107 27.4601ZM79.2373 26.4801V31.3401C79.2373 32.8735 78.4707 33.6401 76.9373 33.6401C76.3107 33.6401 75.814 33.5035 75.4473 33.2301C75.0807 32.9635 74.8807 32.5835 74.8473 32.0901H75.4773C75.5773 32.7968 76.074 33.1501 76.9673 33.1501C77.574 33.1501 78.004 32.9935 78.2573 32.6801C78.5173 32.3668 78.6473 31.9035 78.6473 31.2901V30.4301C78.3007 31.1835 77.7073 31.5601 76.8673 31.5601C76.1873 31.5601 75.644 31.3301 75.2373 30.8701C74.8373 30.4035 74.6373 29.7835 74.6373 29.0101C74.6373 28.2035 74.844 27.5568 75.2573 27.0701C75.6773 26.5835 76.2307 26.3401 76.9173 26.3401C77.7307 26.3401 78.314 26.7101 78.6673 27.4501V26.4801H79.2373ZM78.1773 27.4301C77.8707 27.0635 77.4607 26.8801 76.9473 26.8801C76.434 26.8801 76.024 27.0668 75.7173 27.4401C75.4173 27.8135 75.2673 28.3201 75.2673 28.9601C75.2673 29.5868 75.4173 30.0868 75.7173 30.4601C76.0173 30.8335 76.4207 31.0201 76.9273 31.0201C77.454 31.0201 77.8707 30.8301 78.1773 30.4501C78.484 30.0635 78.6373 29.5435 78.6373 28.8901C78.6373 28.2768 78.484 27.7901 78.1773 27.4301ZM84.944 31.1101V31.5901C84.7907 31.6435 84.624 31.6701 84.444 31.6701C84.1707 31.6701 83.9907 31.5868 83.904 31.4201C83.8173 31.2535 83.774 31.0235 83.774 30.7301C83.3407 31.4168 82.694 31.7601 81.834 31.7601C81.3073 31.7601 80.894 31.6335 80.594 31.3801C80.3007 31.1268 80.154 30.7735 80.154 30.3201C80.154 29.3935 80.7907 28.8635 82.064 28.7301C82.1307 28.7235 82.224 28.7168 82.344 28.7101C82.464 28.6968 82.5507 28.6868 82.604 28.6801C82.664 28.6735 82.7373 28.6668 82.824 28.6601C82.9173 28.6468 82.984 28.6368 83.024 28.6301C83.0707 28.6235 83.124 28.6135 83.184 28.6001C83.2507 28.5868 83.3007 28.5735 83.334 28.5601C83.374 28.5468 83.414 28.5335 83.454 28.5201C83.494 28.5001 83.5307 28.4801 83.564 28.4601C83.684 28.3801 83.744 28.2168 83.744 27.9701C83.744 27.5635 83.6307 27.2768 83.404 27.1101C83.1773 26.9435 82.844 26.8601 82.404 26.8601C81.9707 26.8601 81.6373 26.9601 81.404 27.1601C81.1773 27.3535 81.044 27.6568 81.004 28.0701H80.404C80.4307 27.5168 80.624 27.0901 80.984 26.7901C81.344 26.4901 81.8407 26.3401 82.474 26.3401C83.0607 26.3401 83.5207 26.4668 83.854 26.7201C84.194 26.9735 84.364 27.3401 84.364 27.8201V30.6201C84.364 30.7535 84.3673 30.8501 84.374 30.9101C84.3807 30.9635 84.4073 31.0168 84.454 31.0701C84.5073 31.1168 84.5907 31.1401 84.704 31.1401C84.7907 31.1401 84.8707 31.1301 84.944 31.1101ZM83.744 28.8201C83.684 28.8868 83.584 28.9435 83.444 28.9901C83.3107 29.0301 83.1873 29.0601 83.074 29.0801C82.9607 29.1001 82.7673 29.1268 82.494 29.1601C82.4273 29.1668 82.3773 29.1735 82.344 29.1801C82.1307 29.2068 81.954 29.2368 81.814 29.2701C81.6807 29.3035 81.524 29.3601 81.344 29.4401C81.1707 29.5135 81.0373 29.6201 80.944 29.7601C80.8573 29.8935 80.814 30.0601 80.814 30.2601C80.814 30.5601 80.9207 30.8001 81.134 30.9801C81.3473 31.1535 81.634 31.2401 81.994 31.2401C82.4807 31.2401 82.894 31.0968 83.234 30.8101C83.574 30.5168 83.744 30.1335 83.744 29.6601V28.8201ZM86.2095 26.4801V27.4501C86.4229 27.0701 86.6695 26.7901 86.9495 26.6101C87.2362 26.4301 87.5962 26.3401 88.0295 26.3401C88.5629 26.3401 88.9929 26.4868 89.3195 26.7801C89.6462 27.0735 89.8095 27.5201 89.8095 28.1201V31.6201H89.1795V28.3201C89.1795 27.3668 88.7429 26.8901 87.8695 26.8901C87.3762 26.8901 86.9829 27.0568 86.6895 27.3901C86.3962 27.7168 86.2495 28.2001 86.2495 28.8401V31.6201H85.6195V26.4801H86.2095Z" fill="#9B9B9B"/>
</svg>
